# File created by Blade
# Date/Time:  Tue Sep 30 19:10:59 2014
#---------------------------------------------------------
:version 1.10
:name HOM
:units
  mass 1.0
  length 1.000000
  angle deg
:documentation
     Acclaim Skeleton File
:root
   axis xyz
   order TX TY TZ RX RY RZ
   position 0.000000 0.000000 0.000000
   orientation 0 0 0
:bonedata
   begin
      id 1
      name Spine_dum
      direction 0.000000 1.000000 0.000000
      length 7.508948
      axis 0.0 0.0 0.0 xyz
   end
   begin
      id 2
      name LeftUpLeg_dum
      direction 1.000000 0.000000 0.000000
      length 3.000560
      axis 0.0 0.0 0.0 xyz
   end
   begin
      id 3
      name RightUpLeg_dum
      direction -1.000000 0.000000 0.000000
      length 3.000560
      axis 0.0 0.0 0.0 xyz
   end
   begin
      id 4
      name Spine
      direction 0.000000 1.000000 0.000000
      length 0.000000
      axis 0.0 0.0 0.0 xyz
      dof rx ry rz
   end
   begin
      id 5
      name Spine_dum1
      direction 0.000000 1.000000 0.000000
      length 13.861154
      axis 0.0 0.0 0.0 xyz
   end
   begin
      id 6
      name Spine_dum2
      direction 0.000000 1.000000 0.000000
      length 8.204781
      axis 0.0 0.0 0.0 xyz
   end
   begin
      id 7
      name Spine_dum3
      direction 0.000000 1.000000 0.000000
      length 8.204781
      axis 0.0 0.0 0.0 xyz
   end
   begin
      id 8
      name Head
      direction 0.000000 1.000000 0.000000
      length 4.527550
      axis 0.0 0.0 0.0 xyz
      dof rx ry rz
   end
   begin
      id 9
      name LeftShoulder
      direction 1.000000 0.000000 0.000000
      length 6.635956
      axis 0.0 0.0 -90.0 xyz
      dof rx ry rz
   end
   begin
      id 10
      name LeftArm
      direction 1.000000 0.000000 0.000000
      length 10.274218
      axis 0.0 0.0 -90.0 xyz
      dof rx ry rz
   end
   begin
      id 11
      name LeftForeArm
      direction 1.000000 0.000000 0.000000
      length 8.522147
      axis 0.0 0.0 -90.0 xyz
      dof ry rz rx
   end
   begin
      id 12
      name LeftHand
      direction 0.000000 0.000000 0.000000
      length 0.000000
      axis 0.0 0.0 -90.0 xyz
      dof rx ry rz
   end
   begin
      id 13
      name LeftHand_dum1
      direction 0.000000 0.000000 0.000000
      length 0.000000
      axis 0.0 0.0 -90.0 xyz
   end
   begin
      id 14
      name LeftHand_dum2
      direction 1.000000 0.000000 0.000000
      length 3.937000
      axis 0.0 0.0 -90.0 xyz
   end
   begin
      id 15
      name LeftHandThumb1
      direction 0.000000 0.000000 1.000000
      length 3.937000
      axis 0.0 0.0 -90.0 xyz
      dof rx rz ry
   end
   begin
      id 16
      name RightShoulder
      direction -1.000000 0.000000 0.000000
      length 6.635956
      axis 0.0 0.0 90.0 xyz
      dof rx ry rz
   end
   begin
      id 17
      name RightArm
      direction -1.000000 0.000000 0.000000
      length 10.274218
      axis 0.0 0.0 90.0 xyz
      dof rx ry rz
   end
   begin
      id 18
      name RightForeArm
      direction -1.000000 0.000000 0.000000
      length 8.522147
      axis 0.0 0.0 90.0 xyz
      dof ry rz rx
   end
   begin
      id 19
      name RightHand
      direction 0.000000 0.000000 0.000000
      length 0.000000
      axis 0.0 0.0 90.0 xyz
      dof rx ry rz
   end
   begin
      id 20
      name RightHand_dum1
      direction 0.000000 0.000000 0.000000
      length 0.000000
      axis 0.0 0.0 90.0 xyz
   end
   begin
      id 21
      name RightHand_dum2
      direction -1.000000 0.000000 0.000000
      length 3.937000
      axis 0.0 0.0 90.0 xyz
   end
   begin
      id 22
      name RightHandThumb1
      direction 0.000000 0.000000 1.000000
      length 3.937000
      axis 0.0 0.0 90.0 xyz
      dof rx rz ry
   end
   begin
      id 23
      name LeftUpLeg
      direction 0.000000 -1.000000 0.000000
      length 16.490845
      axis 0.0 0.0 0.0 xyz
      dof rx ry rz
   end
   begin
      id 24
      name LeftLeg
      direction 0.000000 -1.000000 0.000000
      length 14.556576
      axis 0.0 0.0 0.0 xyz
      dof rx ry rz
   end
   begin
      id 25
      name LeftFoot
      direction 0.000000 -0.258819 0.965926
      length 4.831116
      axis 15.0 0.0 0.0 xyz
      dof rx ry rz
   end
   begin
      id 26
      name LeftToeBase
      direction 0.000000 0.000000 1.000000
      length 2.952750
      axis 0.0 0.0 0.0 xyz
      dof rx ry rz
   end
   begin
      id 27
      name RightUpLeg
      direction 0.000000 -1.000000 0.000000
      length 16.490845
      axis 0.0 0.0 0.0 xyz
      dof rx ry rz
   end
   begin
      id 28
      name RightLeg
      direction 0.000000 -1.000000 0.000000
      length 14.556576
      axis 0.0 0.0 0.0 xyz
      dof rx ry rz
   end
   begin
      id 29
      name RightFoot
      direction 0.000000 -0.258819 0.965926
      length 4.831116
      axis 15.0 0.0 0.0 xyz
      dof rx ry rz
   end
   begin
      id 30
      name RightToeBase
      direction 0.000000 0.000000 1.000000
      length 2.952750
      axis 0.0 0.0 0.0 xyz
      dof rx ry rz
   end
:hierarchy
   begin
      root Spine_dum LeftUpLeg_dum RightUpLeg_dum
      Spine_dum Spine
      LeftUpLeg_dum LeftUpLeg
      RightUpLeg_dum RightUpLeg
      Spine Spine_dum1 Spine_dum2 Spine_dum3
      Spine_dum1 Head
      Spine_dum2 LeftShoulder
      Spine_dum3 RightShoulder
      LeftShoulder LeftArm
      LeftArm LeftForeArm
      LeftForeArm LeftHand
      LeftHand LeftHand_dum1 LeftHand_dum2
      LeftHand_dum1 LeftHandThumb1
      RightShoulder RightArm
      RightArm RightForeArm
      RightForeArm RightHand
      RightHand RightHand_dum1 RightHand_dum2
      RightHand_dum1 RightHandThumb1
      LeftUpLeg LeftLeg
      LeftLeg LeftFoot
      LeftFoot LeftToeBase
      RightUpLeg RightLeg
      RightLeg RightFoot
      RightFoot RightToeBase
   end

# File created by Blade
# Date/Time:  Wed Sep 24 20:21:23 2014
# Frame Rate: 120.000 fps
#------------------------------------------------------
:FULLY-SPECIFIED
:DEGREES
169
root -7.957766 32.255092 -6.184012 12.039329 5.653723 6.114425
Spine 0.678093 -6.128167 -0.030150
Head -21.624360 0.695647 2.787183
LeftShoulder 4.773281 4.004202 10.350948
LeftArm 49.758189 26.463673 -62.983477
LeftForeArm -9.535937 -0.000000 18.466709
LeftHand -20.929725 -0.000000 -6.971187
LeftHandThumb1 -26.253704 0.000000 33.147579
RightShoulder -14.781171 13.700683 -28.152313
RightArm -11.361814 -11.509709 80.195487
RightForeArm -26.465121 -0.000000 18.276447
RightHand -7.687318 0.000000 4.850461
RightHandThumb1 -24.326973 -0.000000 -32.862282
LeftUpLeg -44.524176 20.741408 -3.828314
LeftLeg 57.980306 -0.000000 -0.000000
LeftFoot 6.419744 14.549407 -15.772720
LeftToeBase -10.212415 -0.000000 0.000000
RightUpLeg -23.564942 -1.393661 1.391416
RightLeg 28.117840 -0.000000 -0.000000
RightFoot -17.266194 -17.812167 -9.769832
RightToeBase 0.246786 -0.000000 -0.000000
170
root -7.977082 32.254768 -6.212889 12.115698 5.728672 6.309316
Spine 0.858334 -6.281465 -0.275501
Head -21.867742 0.751821 2.873965
LeftShoulder 4.975945 3.797687 10.326007
LeftArm 49.850949 26.876176 -62.826436
LeftForeArm -9.584578 -0.000000 18.226636
LeftHand -20.864804 -0.000000 -7.215765
LeftHandThumb1 -26.253704 0.000000 33.147579
RightShoulder -14.706178 13.805252 -28.076619
RightArm -11.412405 -11.752730 80.334307
RightForeArm -26.672069 -0.000000 18.192243
RightHand -7.640792 -0.000000 4.596968
RightHandThumb1 -24.326973 -0.000000 -32.862282
LeftUpLeg -45.525675 20.981798 -4.380274
LeftLeg 59.018127 -0.000000 -0.000000
LeftFoot 6.281057 15.395286 -16.111129
LeftToeBase -9.857197 -0.000000 0.000000
RightUpLeg -23.763241 -1.441165 1.253639
RightLeg 28.308283 -0.000000 -0.000000
RightFoot -17.262002 -17.919601 -9.804670
RightToeBase 0.235757 -0.000000 -0.000000
171
root -8.000767 32.252942 -6.242736 12.182627 5.799683 6.493400
Spine 1.049212 -6.386012 -0.541855
Head -22.120822 0.815800 3.011433
LeftShoulder 5.211565 3.760166 10.369502
LeftArm 50.099488 27.196259 -62.605647
LeftForeArm -9.585008 0.000000 18.018427
LeftHand -20.669412 -0.000000 -7.517938
LeftHandThumb1 -26.253704 0.000000 33.147579
RightShoulder -14.655189 13.876175 -27.989642
RightArm -11.428431 -11.863796 80.418063
RightForeArm -26.398106 -0.000000 18.133173
RightHand -7.530775 -0.000000 4.933258
RightHandThumb1 -24.326973 -0.000000 -32.862282
LeftUpLeg -46.524059 21.195963 -4.879520
LeftLeg 60.055465 -0.000000 -0.000000
LeftFoot 6.322466 16.072745 -16.237359
LeftToeBase -9.944629 -0.000000 0.000000
RightUpLeg -23.937127 -1.430337 1.123086
RightLeg 28.457402 -0.000000 -0.000000
RightFoot -17.228482 -18.097973 -9.837515
RightToeBase 0.178072 -0.000000 -0.000000
172
root -8.020784 32.253139 -6.272919 12.275701 5.879540 6.676753
Spine 1.191858 -6.551867 -0.764723
Head -22.348801 0.939546 3.031054
LeftShoulder 5.369122 3.744344 10.317986
LeftArm 50.320858 27.477223 -62.400988
LeftForeArm -9.609665 -0.000000 17.817042
LeftHand -20.535407 -0.000000 -7.700356
LeftHandThumb1 -26.253704 0.000000 33.147579
RightShoulder -14.571611 13.912256 -27.931400
RightArm -11.383280 -12.147636 80.536385
RightForeArm -26.306069 -0.000000 18.028796
RightHand -7.495474 -0.000000 4.821769
RightHandThumb1 -24.326973 -0.000000 -32.862282
LeftUpLeg -47.570176 21.371595 -5.396566
LeftLeg 61.108720 -0.000000 -0.000000
LeftFoot 6.311480 16.621416 -16.470025
LeftToeBase -9.841129 -0.000000 0.000000
RightUpLeg -24.117509 -1.348410 0.968694
RightLeg 28.575116 -0.000000 -0.000000
RightFoot -17.190751 -18.323426 -9.858837
RightToeBase 0.187848 -0.000000 -0.000000
